<?xml version="1.0" encoding="utf-8"?>
<!-- Generator: Adobe Illustrator 23.0.0, SVG Export Plug-In . SVG Version: 6.00 Build 0)  -->
<svg version="1.1" xmlns="http://www.w3.org/2000/svg" xmlns:xlink="http://www.w3.org/1999/xlink" x="0px" y="0px"
	 viewBox="0 0 512 512" style="enable-background:new 0 0 512 512;" xml:space="preserve">
<style type="text/css">
	.st0{fill:#FFFFFF;}
	.st1{fill:none;stroke:#FFFFFF;stroke-width:8.664;stroke-miterlimit:10;}
	.st2{fill:none;stroke:#000000;stroke-width:8.664;stroke-miterlimit:10;}
</style>
<g id="_x32_">
</g>
<g id="_x31_">
	<g>
		<path d="M432.34,3.38v8.66c5.45,0,10.55,2.11,14.37,5.93l47.82,47.82c7.98,7.98,7.88,21.05-0.22,29.15L115.26,473.99L12.25,500.25
			l26.26-103.01L417.56,18.19c3.96-3.96,9.21-6.15,14.78-6.15L432.34,3.38 M432.34,3.38c-7.54,0-15.12,2.9-20.9,8.68L30.7,392.79
			L0.25,512.25l119.46-30.45l380.73-380.73c11.49-11.49,11.59-30.03,0.22-41.4l-47.82-47.82C447.19,6.19,439.78,3.37,432.34,3.38
			L432.34,3.38z"/>
	</g>
	<g>
		<line class="st2" x1="369.65" y1="60.35" x2="449.57" y2="140.28"/>
	</g>
</g>
</svg>
