<?xml version="1.0" encoding="utf-8"?>
<!-- Generator: Adobe Illustrator 23.0.0, SVG Export Plug-In . SVG Version: 6.00 Build 0)  -->
<svg version="1.1" xmlns="http://www.w3.org/2000/svg" xmlns:xlink="http://www.w3.org/1999/xlink" x="0px" y="0px"
	 viewBox="0 0 512 512" style="enable-background:new 0 0 512 512;" xml:space="preserve">
<style type="text/css">
	.st0{fill:#FFFFFF;}
</style>
<g id="_x31_">
	<g>
		<path d="M256,11.67L493.48,264H441c-5.51,0-10,4.49-10,10v230H319V334c0-5.51-4.49-10-10-10H201c-5.51,0-10,4.49-10,10v170H81V274
			c0-5.51-4.49-10-10-10H18.52L256,11.67 M256,0.92c-0.53,0-1.06,0.21-1.46,0.63L3.17,268.63c-1.2,1.28-0.3,3.37,1.46,3.37H71
			c1.1,0,2,0.9,2,2v236c0,1.1,0.9,2,2,2h122c1.1,0,2-0.9,2-2V334c0-1.1,0.9-2,2-2h108c1.1,0,2,0.9,2,2v176c0,1.1,0.9,2,2,2h124
			c1.1,0,2-0.9,2-2V274c0-1.1,0.9-2,2-2h66.37c1.75,0,2.66-2.09,1.46-3.37L257.46,1.55C257.06,1.13,256.53,0.92,256,0.92L256,0.92z"
			/>
	</g>
</g>
<g id="_x32_">
</g>
<g id="_x33_">
</g>
<g id="_x34_">
</g>
</svg>
