<?xml version="1.0" encoding="utf-8"?>
<!-- Generator: Adobe Illustrator 23.0.0, SVG Export Plug-In . SVG Version: 6.00 Build 0)  -->
<svg version="1.1" xmlns="http://www.w3.org/2000/svg" xmlns:xlink="http://www.w3.org/1999/xlink" x="0px" y="0px"
	 viewBox="0 0 512 512" style="enable-background:new 0 0 512 512;" xml:space="preserve">
<style type="text/css">
	.st0{fill:#FFFFFF;}
</style>
<g id="_x32_">
</g>
<g id="_x31_">
	<g>
		<path d="M256.33,60.66c54.22,0,98.34,44.11,98.34,98.34s-44.11,98.34-98.34,98.34S158,213.22,158,159S202.11,60.66,256.33,60.66
			 M256.33,52c-59.09,0-107,47.91-107,107s47.91,107,107,107s107-47.91,107-107S315.43,52,256.33,52L256.33,52z"/>
	</g>
	<g>
		<path d="M256.33,10.16c39.76,0,77.13,15.48,105.24,43.59s43.59,65.49,43.59,105.24c0,72.7-88.51,229.05-136.06,313.04
			c-4.74,8.37-9.09,16.06-13,23.02c-19.12-32.52-52.46-90.17-82.99-151.25c-19.71-39.42-35.23-74.29-46.13-103.66
			c-12.93-34.82-19.49-62.13-19.49-81.15c0-39.76,15.48-77.13,43.59-105.24S216.58,10.16,256.33,10.16 M256.33,1.5
			c-86.98,0-157.5,70.52-157.5,157.5s125,298.5,157.5,353.5c39.5-72,157.5-266.52,157.5-353.5S343.32,1.5,256.33,1.5L256.33,1.5z"/>
	</g>
</g>
</svg>
