<svg xmlns="http://www.w3.org/2000/svg" viewBox="0 0 512 412" xmlns:v="https://vecta.io/nano"><path d="M101,13.09l-30.73,139,101.11-75.8Zm.14.63-.05-.05.08-.12Z" fill="#e0dee0"/><path d="M101 13.1l-30.65 139H6.13L101 13.1z" fill="#b7b7b7"/><path d="M256 407.1L6 152.1h65l185 255z" fill="#999699"/><path d="M256 12.1v140l-84.58-75.86L256 12.1z" fill="#e0dee0"/><path d="M256 12.1l-84.58 64.14L101 13.1l155-1z" fill="#eee"/><path d="M256 152.1v255l-185.65-255H256z" fill="#b7b7b7"/><path d="M256 152.1H70.35l101.07-75.86L256 152.1z" fill="#999699"/><path d="M340.58,76.24,441.65,152.1,411,13.1Zm70.25-62.68.08.12-.05.05Z" fill="#e0dee0"/><path d="M411 13.1l30.65 139h64.22L411 13.1z" fill="#b7b7b7"/><path d="M256 407.1l250-255h-65l-185 255z" fill="#999699"/><path d="M256 12.1v140l84.58-75.86L256 12.1z" fill="#b7b7b7"/><path d="M256 12.1l84.58 64.14L411 13.1l-155-1z" fill="#eee"/><path d="M256 152.1v255l185.65-255H256z" fill="#e0dee0"/><path d="M256 152.1h185.65L340.58 76.24 256 152.1z" fill="#999699"/></svg>