<?xml version="1.0" encoding="utf-8"?>
<!-- Generator: Adobe Illustrator 23.0.0, SVG Export Plug-In . SVG Version: 6.00 Build 0)  -->
<svg version="1.1" id="Layer_1" xmlns="http://www.w3.org/2000/svg" xmlns:xlink="http://www.w3.org/1999/xlink" x="0px" y="0px"
	 viewBox="0 0 512 512" style="enable-background:new 0 0 512 512;" xml:space="preserve">
<style type="text/css">
	.st0{fill:#FFFFFF;}
</style>
<g id="_x31_">
	<g>
		<path d="M256.33,8.66c0.23,0,0.46,0,0.68,0C269,8.84,280.37,13.57,289.04,22c8.66,8.42,13.67,19.6,14.1,31.49
			c0.19,5.34-0.51,10.59-2.08,15.62l-2.68,8.53l8.61,2.41c27.58,7.7,51.2,21.44,68.33,39.71c17.09,18.24,26.21,39.6,26.38,61.76
			c0.01,1.55-0.02,3.11-0.09,4.66c-2.74,56.65,17.03,110.94,57.2,157.03c20.48,23.5,34.17,49.67,40.67,77.79
			c1.57,6.8-0.03,13.84-4.39,19.33c-4.44,5.58-11.08,8.78-18.24,8.78H35.82c-7.15,0-13.8-3.2-18.24-8.78
			c-4.36-5.49-5.96-12.53-4.39-19.32c6.5-28.1,20.17-54.25,40.63-77.74c41.43-47.56,61.93-101.89,59.28-157.12
			c-0.06-1.32-0.1-2.66-0.1-3.98c0-22.16,8.84-43.51,25.57-61.73c16.74-18.24,40.03-32.04,67.33-39.93l8.59-2.48l-2.75-8.51
			c-1.49-4.61-2.25-9.42-2.25-14.28C209.5,29.55,230.51,8.66,256.33,8.66 M256.33,0c-30.65,0-55.5,24.73-55.5,55.23
			c0,5.91,0.94,11.6,2.67,16.94c-57.94,16.73-99.16,59.65-99.16,109.98c0,1.47,0.04,2.94,0.11,4.39
			c2.57,53.7-18.25,106.35-57.16,151.02c-20.83,23.92-35.62,51.57-42.54,81.48c-4.58,19.82,10.63,38.72,31.07,38.72h441.02
			c20.44,0,35.66-18.9,31.07-38.73c-6.92-29.93-21.72-57.6-42.58-81.53c-38.84-44.56-57.67-97.34-55.08-150.91
			c0.08-1.7,0.12-3.42,0.1-5.14c-0.38-50.32-42.52-93.41-101.04-109.75c1.83-5.82,2.71-12.06,2.47-18.53
			c-1.07-29.2-25.3-52.75-54.66-53.17C256.87,0,256.6,0,256.33,0L256.33,0z"/>
	</g>
	<g>
		<path d="M302.49,458.47c-3.79,25.69-23.11,45.37-46.15,45.37s-42.36-19.67-46.15-45.37H302.49 M311.82,449.81H200.85
			c0.27,34.68,25,62.69,55.49,62.69S311.55,484.48,311.82,449.81L311.82,449.81z"/>
	</g>
</g>
</svg>
