<?xml version="1.0" encoding="utf-8"?>
<!-- Generator: Adobe Illustrator 23.0.0, SVG Export Plug-In . SVG Version: 6.00 Build 0)  -->
<svg version="1.1" xmlns="http://www.w3.org/2000/svg" xmlns:xlink="http://www.w3.org/1999/xlink" x="0px" y="0px"
	 viewBox="0 0 512 512" style="enable-background:new 0 0 512 512;" xml:space="preserve">
<style type="text/css">
	.st0{fill:#FFFFFF;}
</style>
<g id="_x34_">
</g>
<g id="_x33_">
</g>
<g id="_x32_">
</g>
<g id="_x31_">
	<g>
		<path d="M170.18,301.49c25.94,15.73,55.87,24.02,86.84,24.02c30.65,0,60.33-8.14,86.1-23.58c22.31,7.62,43.26,18.13,62.34,31.28
			c19.91,13.72,37.37,30.03,51.9,48.47c28.23,35.83,43.97,77.72,45.8,121.66H8.84c1.84-44.15,17.71-86.22,46.2-122.16
			c14.66-18.49,32.26-34.82,52.32-48.52C126.59,319.51,147.71,309.04,170.18,301.49 M171.33,292C71.56,323.83,0,410.3,0,512h512
			c0-101.24-70.91-187.4-169.98-219.57c-24.31,15.42-53.55,24.42-85,24.42C225.27,316.85,195.78,307.68,171.33,292L171.33,292z"/>
	</g>
	<g>
		<path d="M257.02,8.66c38.56,0,74.8,15.01,102.07,42.28c27.26,27.26,42.28,63.51,42.28,102.07s-15.01,74.8-42.28,102.07
			c-27.26,27.26-63.51,42.28-102.07,42.28s-74.8-15.01-102.07-42.28c-27.26-27.26-42.28-63.51-42.28-102.07s15.01-74.8,42.28-102.07
			C182.21,23.68,218.46,8.66,257.02,8.66 M257.02,0c-84.5,0-153.01,68.5-153.01,153.01s68.5,153.01,153.01,153.01
			s153.01-68.5,153.01-153.01S341.52,0,257.02,0L257.02,0z"/>
	</g>
</g>
</svg>
