<svg xmlns="http://www.w3.org/2000/svg" viewBox="0 0 512 512" xmlns:v="https://vecta.io/nano"><path d="M196 8.66c25.29 0 49.83 4.95 72.92 14.72 22.31 9.44 42.34 22.94 59.55 40.15s30.72 37.24 40.15 59.55c9.77 23.09 14.72 47.62 14.72 72.92s-4.95 49.83-14.72 72.92c-9.43 22.31-22.94 42.34-40.15 59.55s-37.24 30.72-59.55 40.15c-23.09 9.77-47.62 14.72-72.92 14.72s-49.83-4.95-72.92-14.72c-22.31-9.43-42.34-22.94-59.55-40.15s-30.72-37.24-40.15-59.55C13.62 245.83 8.66 221.29 8.66 196s4.95-49.83 14.72-72.92c9.44-22.31 22.94-42.34 40.15-59.55s37.24-30.72 59.55-40.15C146.17 13.62 170.71 8.66 196 8.66M196 0C87.75 0 0 87.75 0 196s87.75 196 196 196 196-87.75 196-196S304.25 0 196 0h0z"/><path d="M505.95 504L335.02 336" fill="none" stroke="#000" stroke-width="8.664" stroke-linecap="round" stroke-miterlimit="10"/></svg>