<?xml version="1.0" encoding="utf-8"?>
<!-- Generator: Adobe Illustrator 23.0.0, SVG Export Plug-In . SVG Version: 6.00 Build 0)  -->
<svg version="1.1" xmlns="http://www.w3.org/2000/svg" xmlns:xlink="http://www.w3.org/1999/xlink" x="0px" y="0px"
	 viewBox="0 0 512 512" style="enable-background:new 0 0 512 512;" xml:space="preserve">
<style type="text/css">
	.st0{fill:#FFFFFF;}
</style>
<g id="_x32_">
</g>
<g id="_x31_">
	<g>
		<path d="M257.26,139.91c56.43,0,102.35,45.91,102.35,102.35S313.69,344.6,257.26,344.6s-102.35-45.91-102.35-102.35
			S200.82,139.91,257.26,139.91 M257.26,131.25c-61.31,0-111.01,49.7-111.01,111.01s49.7,111.01,111.01,111.01
			s111.01-49.7,111.01-111.01S318.57,131.25,257.26,131.25L257.26,131.25z"/>
	</g>
	<g>
		<path d="M257.21,106.42c42.76,0,85,11.17,125.54,33.2c41.9,22.77,81.03,56.63,116.31,100.65l1.59,1.98l-1.59,1.98
			c-35.28,44.03-74.41,77.89-116.31,100.66c-40.54,22.03-82.78,33.2-125.54,33.2c-43.98,0-87.35-11.79-128.92-35.05
			c-41.32-23.12-79.82-57-114.53-100.79c34.71-43.79,73.22-77.67,114.53-100.79C169.86,118.21,213.23,106.42,257.21,106.42
			 M257.21,97.75c-90.12,0-180.15,48.23-254.46,144.5l0,0l0,0c74.3,96.26,164.35,144.5,254.46,144.5
			c87.63,0,175.31-45.63,248.62-137.1l5.93-7.4l-5.93-7.4C432.54,143.4,344.83,97.75,257.21,97.75L257.21,97.75z"/>
	</g>
</g>
</svg>
