<?xml version="1.0" encoding="utf-8"?>
<!-- Generator: Adobe Illustrator 23.0.0, SVG Export Plug-In . SVG Version: 6.00 Build 0)  -->
<svg version="1.1" xmlns="http://www.w3.org/2000/svg" xmlns:xlink="http://www.w3.org/1999/xlink" x="0px" y="0px"
	 viewBox="0 0 512 512" style="enable-background:new 0 0 512 512;" xml:space="preserve">
<style type="text/css">
	.st0{fill:#FFFFFF;}
</style>
<g id="_x32_">
</g>
<g id="_x31_">
	<g>
		<g>
			<path d="M297.21,8.9c15,0,34.91,6.61,44.57,38.11c2.23,7.27,2.57,15.13,0.99,22.76l-34.21,137.3l-2.68,10.76h11.09h146.7
				c7.47,0,14.69,2.93,19.81,8.03c12.24,12.19,25.2,35.88,17.72,79.56l-63.96,158.12c-4.77,11.8-12.87,21.79-23.42,28.91
				c-10.55,7.11-22.86,10.87-35.58,10.87H222.8l-87.57-46.99V223.87l115.3-133.14c8.28-9.56,15.37-20.12,21.08-31.39L297.15,8.9
				C297.17,8.9,297.19,8.9,297.21,8.9 M297.21,0.24c-2.75,0-4.63,0.2-5.25,0.2c-0.14,0-0.21-0.01-0.22-0.03l-27.86,55.02
				c-5.4,10.65-12.08,20.61-19.9,29.64L126.56,220.64v240.88L220.62,512h157.62c29.47,0,55.99-17.88,67.04-45.2l64.31-158.98
				c8.62-48.86-7.06-75.22-19.98-88.09c-6.86-6.84-16.24-10.56-25.93-10.56h-146.7l34.25-137.47c1.9-9.03,1.55-18.41-1.16-27.23
				C337.65,4.02,309.19,0.24,297.21,0.24L297.21,0.24z"/>
		</g>
	</g>
	<g>
		<g>
			<path d="M104.46,183.05c12.26,0,22.23,9.97,22.23,22.23v275.83c0,12.26-9.97,22.23-22.23,22.23H31.42
				c-12.26,0-22.23-9.97-22.23-22.23V205.28c0-12.26,9.97-22.23,22.23-22.23H104.46 M104.46,174.39H31.42
				c-17.06,0-30.89,13.83-30.89,30.89v275.83c0,17.06,13.83,30.89,30.89,30.89h73.04c17.06,0,30.89-13.83,30.89-30.89V205.28
				C135.35,188.22,121.52,174.39,104.46,174.39L104.46,174.39z"/>
		</g>
	</g>
</g>
</svg>
